<svg width="124" height="125" viewBox="0 0 124 125" fill="none" xmlns="http://www.w3.org/2000/svg">
<line y1="3.8349" x2="124" y2="3.8349" stroke="#285AFF" stroke-width="6"/>
<line x1="121" y1="1" x2="121" y2="123.939" stroke="#285AFF" stroke-width="6"/>
<line x1="120" y1="121.06" x2="58" y2="121.06" stroke="#285AFF" stroke-width="6"/>
<path d="M3 2.33014L3 31.9197L3 63.3301" stroke="#285AFF" stroke-width="6"/>
<path d="M35.855 86.8667C35.855 86.4044 35.8359 85.9422 35.7977 85.48C35.7977 84.9822 35.7977 84.4489 35.7977 83.88C35.7977 83.6311 35.7977 83.4 35.7977 83.1867C35.7977 82.9378 35.7786 82.6889 35.7404 82.44C35.7404 82.1911 35.7404 81.9422 35.7404 81.6933C35.7404 81.4089 35.7404 81.1422 35.7404 80.8933C35.7404 80.6089 35.7404 80.3422 35.7404 80.0933C35.7404 79.8089 35.7404 79.5422 35.7404 79.2933C35.7022 75.8089 35.664 72.0756 35.6258 68.0933C35.6258 64.1111 35.6258 60.5556 35.6258 57.4267C35.6258 56.8222 35.6258 56.2533 35.6258 55.72C35.6258 55.1511 35.6258 54.5822 35.6258 54.0133C35.6258 53.5867 35.6258 53.1778 35.6258 52.7867C35.6258 52.36 35.6258 51.9511 35.6258 51.56C35.6258 51.1689 35.6258 50.7778 35.6258 50.3867C35.6258 47.4356 35.6449 44.7511 35.6831 42.3333C35.7213 39.9156 35.7404 38.0133 35.7404 36.6267C35.7786 33.5689 36.2178 31.2044 37.0582 29.5333C37.8985 27.8267 39.6174 26.6533 42.2149 26.0133C44.8123 25.3378 48.8421 25 54.3044 25C61.4091 25 67.6162 26.2089 72.9257 28.6267C78.2352 31.0444 82.3605 34.8311 85.3017 39.9867C88.2429 45.1067 89.7135 51.7378 89.7135 59.88C89.7135 69.0889 88.2047 76.4133 85.1871 81.8533C82.1695 87.2578 78.0251 91.1333 72.7538 93.48C67.5207 95.8267 61.5237 97 54.7628 97C49.6061 97 45.6717 96.7156 42.9597 96.1467C40.2477 95.5422 38.3951 94.5111 37.402 93.0533C36.4088 91.5956 35.8932 89.5333 35.855 86.8667ZM45.2516 82.4933C45.137 84.9467 45.7099 86.7422 46.9705 87.88C48.231 88.9822 50.8666 89.5333 54.8773 89.5333C58.1623 89.5333 61.0845 89.2667 63.6437 88.7333C66.2029 88.2 68.342 87.3111 70.0609 86.0667C71.818 84.7867 73.1358 83.0978 74.0143 81C74.9311 78.8667 75.3894 76.2356 75.3894 73.1067C75.3894 68.9822 74.7783 65.0533 73.5559 61.32C72.3336 57.5511 70.6529 54.2089 68.5139 51.2933C66.413 48.3778 63.9684 46.0844 61.1799 44.4133C58.3915 42.7067 55.4121 41.8533 52.2417 41.8533C50.5992 41.8533 49.4151 42.2267 48.6893 42.9733C47.9636 43.6844 47.5434 44.8756 47.4288 46.5467C46.9705 52.3067 46.5503 58.2444 46.1683 64.36C45.7863 70.4756 45.4808 76.52 45.2516 82.4933ZM75.7332 50.7067C77.3375 50.7067 78.6362 50.2978 79.6294 49.48C80.6225 48.6267 81.1191 47.4 81.1191 45.8C81.1191 44.52 80.6607 43.5422 79.744 42.8667C78.8272 42.1911 77.5285 41.8533 75.8478 41.8533C74.5873 41.8533 73.5178 42.2267 72.6392 42.9733C71.7989 43.6844 71.3787 44.7333 71.3787 46.12C71.3787 47.5422 71.818 48.6622 72.6965 49.48C73.5751 50.2978 74.5873 50.7067 75.7332 50.7067ZM80.0877 56.2533C80.0877 56.2889 80.0877 56.3067 80.0877 56.3067C80.0877 56.2711 80.0877 56.2533 80.0877 56.2533ZM65.4199 40.68C66.9096 40.68 68.0364 40.2356 68.8004 39.3467C69.6025 38.4222 70.0036 37.0889 70.0036 35.3467C70.0036 34.3156 69.6025 33.4267 68.8004 32.68C68.0364 31.8978 66.7568 31.5067 64.9615 31.5067C63.7774 31.5067 62.6696 31.8978 61.6383 32.68C60.6452 33.4622 60.1486 34.4222 60.1486 35.56C60.1486 37.1956 60.6452 38.4578 61.6383 39.3467C62.6315 40.2356 63.892 40.68 65.4199 40.68ZM40.897 46.8667C41.2408 46.7956 41.6037 46.76 41.9857 46.76C42.4058 46.76 42.8451 46.7956 43.3035 46.8667C43.9528 46.9022 44.4303 47.2044 44.7359 47.7733C45.0797 48.3067 45.2516 49.3556 45.2516 50.92C45.2516 52.4133 45.0415 53.3911 44.6213 53.8533C44.2393 54.28 43.6091 54.5467 42.7305 54.6533C42.4249 54.6889 42.1194 54.7244 41.8138 54.76C41.5464 54.76 41.2599 54.76 40.9543 54.76C40.687 54.7244 40.4005 54.6889 40.0949 54.6533C39.3691 54.5467 38.8153 54.2622 38.4333 53.8C38.0895 53.3378 37.9176 52.3422 37.9176 50.8133C37.9176 49.2489 38.1468 48.2356 38.6052 47.7733C39.1018 47.3111 39.8657 47.0089 40.897 46.8667ZM31.1567 75.72C33.9069 74.2978 36.447 73.0178 38.7771 71.88C41.1071 70.7422 43.7046 69.5689 46.5694 68.36C49.1286 67.2578 51.325 66.7422 53.1585 66.8133C54.9919 66.8489 55.9087 67.8267 55.9087 69.7467C55.9087 70.6711 55.4312 71.56 54.4763 72.4133C53.5595 73.2667 52.2417 74.12 50.5228 74.9733C47.7344 76.3956 45.0033 77.7467 42.3295 79.0267C39.6938 80.2711 37.1346 81.4089 34.6517 82.44C32.2453 83.4356 30.2017 83.9156 28.521 83.88C26.8403 83.8089 26 82.8311 26 80.9467C26 80.0933 26.4011 79.24 27.2032 78.3867C28.0436 77.5333 29.3614 76.6444 31.1567 75.72ZM69.8317 75.88C72.5437 77.8 75.3321 79.8622 78.197 82.0667C81.0618 84.2711 83.7547 86.3689 86.2757 88.36C87.4599 89.2844 88.3766 90.2267 89.026 91.1867C89.6753 92.1111 90 93 90 93.8533C90 95.2044 89.5225 96.0933 88.5676 96.52C87.6126 96.9111 86.4285 96.9289 85.0152 96.5733C83.6401 96.1822 82.3032 95.5067 81.0045 94.5467C78.0633 92.3778 75.1221 90.1733 72.1808 87.9333C69.2778 85.6933 66.9096 83.7733 65.0761 82.1733C63.892 81.1067 62.9561 80.1467 62.2686 79.2933C61.6192 78.44 61.2945 77.6222 61.2945 76.84C61.2945 75.0267 62.1922 74.0489 63.9875 73.9067C65.821 73.7644 67.769 74.4222 69.8317 75.88Z" fill="#285AFF"/>
</svg>
